<svg width="244" height="114" viewBox="0 0 244 114" fill="none" xmlns="http://www.w3.org/2000/svg">
<g clip-path="url(#clip0_16_13)">
<path d="M27.0177 113.439L26.599 113.345C31.2678 92.5802 43.0009 73.7239 59.6369 60.2495C72.2143 50.0783 87.1731 43.2757 103.105 40.4823C119.037 37.6889 135.417 38.9966 150.704 44.2823C165.991 49.5679 179.682 58.6576 190.486 70.6955C201.291 82.7334 208.855 97.3233 212.465 113.092L212.047 113.187C202.164 69.7884 164.132 39.4784 119.561 39.4784C75.5735 39.4784 36.6535 70.5834 27.0177 113.439Z" fill="#3F3D56"/>
<path d="M225.652 103.555L226.296 108.276L221.789 108.706L222.433 102.911L225.652 103.555Z" fill="#A0616A"/>
<path d="M204.406 38.7391C204.406 38.7391 204.836 44.5339 204.836 44.7485C204.836 44.9632 201.831 59.772 201.831 59.772C201.831 59.772 197.539 67.9276 201.831 67.713C206.123 67.4984 204.836 59.9866 204.836 59.9866L209.342 47.5386L207.411 38.7391H204.406Z" fill="#A0616A"/>
<path d="M211.488 103.555L210.844 108.276L215.351 108.706L214.707 102.911L211.488 103.555Z" fill="#A0616A"/>
<path d="M206.552 59.3428L205.479 60.8451C205.479 60.8451 204.836 67.2838 205.479 69.43C206.123 71.5762 207.411 81.4488 207.411 82.0926C207.411 82.7365 207.625 83.1657 207.411 83.3804C207.196 83.595 206.552 83.595 206.982 84.0242C207.411 84.4535 207.411 85.7412 207.411 85.7412V86.8143L210.2 102.696C210.2 102.696 208.484 104.628 209.771 104.628C211.059 104.628 215.78 104.628 215.565 102.482L215.136 102.267C215.136 102.267 214.492 88.102 214.707 87.4582C214.922 86.8143 214.707 85.5266 214.707 85.5266C214.707 85.5266 214.278 84.8827 214.707 84.6681C215.136 84.4535 215.136 82.7365 215.136 82.7365L217.068 69.6446C217.068 69.6446 218.784 78.4441 219.857 79.3026C220.93 80.161 220.716 82.3073 220.716 82.3073L221.574 101.194C221.574 101.194 220.716 103.34 221.574 103.769C222.433 104.199 226.081 105.701 226.295 103.555C226.51 101.409 227.583 82.7365 227.583 81.878C227.583 81.0195 227.368 80.5903 227.583 79.9464C227.798 79.3026 227.368 79.3026 227.583 79.3026C227.798 79.3026 227.154 78.6587 227.154 78.2295V67.713C227.154 67.713 227.368 65.5668 227.583 65.1376C227.798 64.7083 227.368 64.2791 227.583 63.6352C227.798 62.9914 227.154 60.8451 227.154 60.8451L217.497 58.2697L206.552 59.3428Z" fill="#2F2E41"/>
<path d="M214.063 107.418C214.063 107.418 215.136 106.345 213.634 106.345C212.67 106.365 211.72 106.584 210.844 106.989L209.771 110.852C209.771 110.852 205.372 114.393 210.308 113.964C215.244 113.535 214.493 113.857 214.493 113.857C214.493 113.857 215.995 113.427 216.209 112.998C216.424 112.569 215.78 106.345 215.78 106.345C215.78 106.345 215.136 108.062 214.063 107.418Z" fill="#2F2E41"/>
<path d="M223.291 107.418C223.291 107.418 222.218 106.345 223.72 106.345C224.685 106.365 225.635 106.584 226.51 106.989L227.583 110.852C227.583 110.852 231.982 114.393 227.047 113.964C222.111 113.535 222.218 113.857 222.218 113.857C222.218 113.857 220.716 113.427 220.501 112.998C220.287 112.569 221.574 106.345 221.574 106.345C221.574 106.345 222.218 108.062 223.291 107.418Z" fill="#2F2E41"/>
<path d="M63.3163 38.0807H61.4058V113.553H63.3163V38.0807Z" fill="#3F3D56"/>
<path d="M80.9481 47.6987C81.0697 74.0895 62.5042 95.5695 62.5042 95.5695C62.5042 95.5695 43.7416 74.2616 43.62 47.8708C43.4983 21.48 62.0638 -1.52588e-05 62.0638 -1.52588e-05C62.0638 -1.52588e-05 80.8264 21.3079 80.9481 47.6987Z" fill="#DA8215"/>
<path d="M196.252 82.3073H48.3923V113.642H196.252V82.3073Z" fill="#F2F2F2"/>
<path d="M43.6711 85.7412L59.7661 52.0457H188.311L200.329 85.7412H43.6711Z" fill="#3F3D56"/>
<path d="M143.46 54.1919H83.8012V73.937H143.46V54.1919Z" fill="#F2F2F2"/>
<path d="M87.664 38.0953L78.2216 57.8404H149.04L143.46 38.0953H87.664Z" fill="#3F3D56"/>
<path d="M136.164 88.5313H89.0589V113.642H136.164V88.5313Z" fill="#CCCCCC"/>
<path d="M79.2946 89.3898H54.1865V113.642H79.2946V89.3898Z" fill="#CCCCCC"/>
<path d="M157.302 90.8921H144.318V113.642H157.302V90.8921Z" fill="#3F3D56"/>
<path d="M39.8683 63.7552H38.6076V113.559H39.8683V63.7552Z" fill="#3F3D56"/>
<path d="M51.5034 70.1021C51.5836 87.5171 39.3324 101.692 39.3324 101.692C39.3324 101.692 26.9511 87.6307 26.8708 70.2156C26.7906 52.8005 39.0418 38.626 39.0418 38.626C39.0418 38.626 51.4231 52.687 51.5034 70.1021Z" fill="#DA8215"/>
<path opacity="0.1" d="M51.5034 70.1021C51.5836 87.5171 39.3324 101.692 39.3324 101.692C39.3324 101.692 26.9511 87.6307 26.8708 70.2156C26.7906 52.8005 39.0418 38.626 39.0418 38.626C39.0418 38.626 51.4231 52.687 51.5034 70.1021Z" fill="black"/>
<path d="M23.4789 63.7552H22.2181V113.559H23.4789V63.7552Z" fill="#3F3D56"/>
<path d="M35.1139 70.1021C35.1942 87.5171 22.943 101.692 22.943 101.692C22.943 101.692 10.5616 87.6307 10.4814 70.2156C10.4011 52.8005 22.6523 38.626 22.6523 38.626C22.6523 38.626 35.0337 52.687 35.1139 70.1021Z" fill="#DA8215"/>
<path d="M177.689 92.1798H171.358V98.0819H177.689V92.1798Z" fill="#3F3D56"/>
<path d="M186.165 92.1798H179.835V98.0819H186.165V92.1798Z" fill="#3F3D56"/>
<path d="M177.689 100.228H171.358V106.345H177.689V100.228Z" fill="#3F3D56"/>
<path d="M186.165 100.228H179.835V106.345H186.165V100.228Z" fill="#3F3D56"/>
<path d="M94.228 59.5947H89.2735V64.2138H94.228V59.5947Z" fill="#3F3D56"/>
<path d="M100.862 59.5947H95.9075V64.2138H100.862V59.5947Z" fill="#3F3D56"/>
<path d="M94.228 65.8934H89.2735V70.6804H94.228V65.8934Z" fill="#3F3D56"/>
<path d="M100.862 65.8934H95.9075V70.6804H100.862V65.8934Z" fill="#3F3D56"/>
<path d="M131.354 59.5947H126.399V64.2138H131.354V59.5947Z" fill="#3F3D56"/>
<path d="M137.988 59.5947H133.033V64.2138H137.988V59.5947Z" fill="#3F3D56"/>
<path d="M131.354 65.8934H126.399V70.6804H131.354V65.8934Z" fill="#3F3D56"/>
<path d="M137.988 65.8934H133.033V70.6804H137.988V65.8934Z" fill="#3F3D56"/>
<path d="M112.898 59.5947H107.944V64.2138H112.898V59.5947Z" fill="#3F3D56"/>
<path d="M119.532 59.5947H114.578V64.2138H119.532V59.5947Z" fill="#3F3D56"/>
<path d="M112.898 65.8934H107.944V70.6804H112.898V65.8934Z" fill="#3F3D56"/>
<path d="M119.532 65.8934H114.578V70.6804H119.532V65.8934Z" fill="#3F3D56"/>
<path d="M150.335 93.197H147.215V96.1052H150.335V93.197Z" fill="#F2F2F2"/>
<path d="M154.512 93.197H151.392V96.1052H154.512V93.197Z" fill="#F2F2F2"/>
<path d="M150.335 97.1628H147.215V100.177H150.335V97.1628Z" fill="#F2F2F2"/>
<path d="M154.512 97.1628H151.392V100.177H154.512V97.1628Z" fill="#F2F2F2"/>
<path d="M155.585 104.735C156.059 104.735 156.443 104.351 156.443 103.877C156.443 103.403 156.059 103.018 155.585 103.018C155.111 103.018 154.726 103.403 154.726 103.877C154.726 104.351 155.111 104.735 155.585 104.735Z" fill="#F2F2F2"/>
<path d="M136.271 91.2141H89.0589V91.6433H136.271V91.2141Z" fill="#F2F2F2"/>
<path d="M136.271 93.1456H89.0589V93.5749H136.271V93.1456Z" fill="#F2F2F2"/>
<path d="M136.271 95.0772H89.0589V95.5065H136.271V95.0772Z" fill="#F2F2F2"/>
<path d="M136.271 97.0088H89.0589V97.4381H136.271V97.0088Z" fill="#F2F2F2"/>
<path d="M136.271 98.9404H89.0589V99.3697H136.271V98.9404Z" fill="#F2F2F2"/>
<path d="M136.271 100.872H89.0589V101.301H136.271V100.872Z" fill="#F2F2F2"/>
<path d="M136.271 102.804H89.0589V103.233H136.271V102.804Z" fill="#F2F2F2"/>
<path d="M136.271 104.735H89.0589V105.164H136.271V104.735Z" fill="#F2F2F2"/>
<path d="M136.271 106.667H89.0589V107.096H136.271V106.667Z" fill="#F2F2F2"/>
<path d="M136.271 108.598H89.0589V109.028H136.271V108.598Z" fill="#F2F2F2"/>
<path d="M136.271 110.53H89.0589V110.959H136.271V110.53Z" fill="#F2F2F2"/>
<path d="M79.2946 91.2141H54.1865V91.6433H79.2946V91.2141Z" fill="#F2F2F2"/>
<path d="M79.2946 93.1456H54.1865V93.5749H79.2946V93.1456Z" fill="#F2F2F2"/>
<path d="M79.2946 95.0772H54.1865V95.5065H79.2946V95.0772Z" fill="#F2F2F2"/>
<path d="M79.2946 97.0088H54.1865V97.4381H79.2946V97.0088Z" fill="#F2F2F2"/>
<path d="M79.2946 98.9404H54.1865V99.3697H79.2946V98.9404Z" fill="#F2F2F2"/>
<path d="M79.2946 100.872H54.1865V101.301H79.2946V100.872Z" fill="#F2F2F2"/>
<path d="M79.2946 102.804H54.1865V103.233H79.2946V102.804Z" fill="#F2F2F2"/>
<path d="M79.2946 104.735H54.1865V105.164H79.2946V104.735Z" fill="#F2F2F2"/>
<path d="M79.2946 106.667H54.1865V107.096H79.2946V106.667Z" fill="#F2F2F2"/>
<path d="M79.2946 108.598H54.1865V109.028H79.2946V108.598Z" fill="#F2F2F2"/>
<path d="M79.2946 110.53H54.1865V110.959H79.2946V110.53Z" fill="#F2F2F2"/>
<path d="M188.204 69.3227C197.804 69.3227 205.587 61.5395 205.587 51.9384C205.587 42.3373 197.804 34.554 188.204 34.554C178.604 34.554 170.821 42.3373 170.821 51.9384C170.821 61.5395 178.604 69.3227 188.204 69.3227Z" fill="#DA8215"/>
<path d="M199.149 50.2214H189.921V40.9927H186.487V50.2214H177.259V53.6553H186.487V62.884H189.921V53.6553H199.149V50.2214Z" fill="white"/>
<path d="M209.342 21.7841C212.424 21.7841 214.922 19.2858 214.922 16.2039C214.922 13.1221 212.424 10.6238 209.342 10.6238C206.261 10.6238 203.763 13.1221 203.763 16.2039C203.763 19.2858 206.261 21.7841 209.342 21.7841Z" fill="#A0616A"/>
<path d="M207.411 20.2817C207.411 20.2817 208.269 24.5742 208.269 25.218C208.269 25.8619 211.917 27.7935 211.917 27.7935L215.995 22.6426C215.995 22.6426 213.42 18.994 213.42 18.1355L207.411 20.2817Z" fill="#A0616A"/>
<path d="M210.63 25.8619C210.63 25.8619 208.759 25.364 208.192 24.5398C208.192 24.5398 202.26 30.3689 202.26 31.442L206.982 39.8123C206.982 39.8123 206.982 42.817 207.411 43.0316C207.84 43.2462 207.411 43.0316 207.411 43.8901C207.411 44.7486 206.123 50.3287 206.552 51.1872C206.982 52.0457 207.411 51.4018 206.982 52.6895C206.552 53.9773 205.479 60.8451 205.479 60.8451C205.479 60.8451 209.342 59.5574 214.922 61.7036C220.501 63.8498 227.154 60.8451 227.154 60.8451C227.154 60.8451 225.437 56.982 225.866 55.6942C226.296 54.4065 224.793 52.0457 224.793 52.0457L223.72 32.3005C223.72 32.3005 225.223 23.501 224.15 23.0718L222.004 22.2133L215.131 21.3686C215.131 21.3686 213.42 25.6473 210.63 25.8619Z" fill="#D0CDE1"/>
<path d="M204.406 29.9397L202.26 31.442C202.26 31.442 201.187 34.6614 202.26 36.1637C203.333 37.666 203.763 39.8123 203.763 39.8123L208.055 39.383L204.406 29.9397Z" fill="#D0CDE1"/>
<path d="M220.287 31.8713C220.287 31.8713 219.044 35.0671 219.304 38.2291C219.351 38.7953 219.542 39.34 219.858 39.8122L204.633 47.0409C204.633 47.0409 197.754 47.7532 199.471 50.7579C201.187 53.7626 207.411 49.2556 207.411 49.2556C207.411 49.2556 223.72 46.8948 225.008 44.5339C226.296 42.1731 227.154 32.3005 227.154 32.3005L220.287 31.8713Z" fill="#A0616A"/>
<path d="M205.082 10.3066L204.114 9.91912C204.114 9.91912 206.138 7.69094 208.954 7.8847L208.162 7.0128C208.162 7.0128 210.097 6.23779 211.857 8.2722C212.782 9.34165 213.852 10.5987 214.52 12.0148H215.556L215.124 12.9674L216.638 13.9201L215.084 13.7489C215.231 14.5714 215.18 15.417 214.937 16.2161L214.978 16.9691C214.978 16.9691 213.177 14.1817 213.177 13.7942V14.763C213.177 14.763 212.209 13.8911 212.209 13.3098L211.681 13.988L211.417 12.9223L208.162 13.988L208.69 13.1161L206.666 13.4067L207.458 12.341C207.458 12.341 205.17 13.6004 205.082 14.6661C204.994 15.7318 203.85 17.088 203.85 17.088L203.322 16.1193C203.322 16.1193 202.531 11.7598 205.082 10.3066Z" fill="#2F2E41"/>
<path d="M220.931 23.0718H224.15C224.15 23.0718 226.51 23.501 227.154 27.7935C227.798 32.0859 228.442 33.159 227.798 33.159C227.154 33.159 219.428 32.9444 219.428 32.7298C219.428 32.5151 220.931 23.0718 220.931 23.0718Z" fill="#D0CDE1"/>
</g>
<defs>
<clipPath id="clip0_16_13">
<rect width="244" height="114" fill="white"/>
</clipPath>
</defs>
</svg>
