<svg xmlns="http://www.w3.org/2000/svg" width="19" height="17" viewBox="0 0 19 17" fill="none">
  <path d="M17.4167 0.583374H1.58335C1.37339 0.583374 1.17203 0.666781 1.02356 0.815248C0.875094 0.963714 0.791687 1.16508 0.791687 1.37504V7.70837C0.791687 7.91834 0.875094 8.1197 1.02356 8.26817C1.17203 8.41663 1.37339 8.50004 1.58335 8.50004H3.95835V15.625C3.95835 15.835 4.04176 16.0364 4.19023 16.1848C4.33869 16.3333 4.54006 16.4167 4.75002 16.4167H14.25C14.46 16.4167 14.6613 16.3333 14.8098 16.1848C14.9583 16.0364 15.0417 15.835 15.0417 15.625V8.50004H17.4167C17.6266 8.50004 17.828 8.41663 17.9765 8.26817C18.1249 8.1197 18.2084 7.91834 18.2084 7.70837V1.37504C18.2084 1.16508 18.1249 0.963714 17.9765 0.815248C17.828 0.666781 17.6266 0.583374 17.4167 0.583374ZM5.54169 14.8334V13.25C5.96161 13.25 6.36434 13.4169 6.66127 13.7138C6.9582 14.0107 7.12502 14.4134 7.12502 14.8334H5.54169ZM13.4584 14.8334H11.875C11.875 14.4134 12.0418 14.0107 12.3388 13.7138C12.6357 13.4169 13.0384 13.25 13.4584 13.25V14.8334ZM13.4584 11.6667C12.6185 11.6667 11.813 12.0003 11.2192 12.5942C10.6253 13.1881 10.2917 13.9935 10.2917 14.8334H8.70835C8.70835 13.9935 8.37472 13.1881 7.78086 12.5942C7.18699 12.0003 6.38154 11.6667 5.54169 11.6667V5.33337H13.4584V11.6667ZM16.625 6.91671H15.0417V4.54171C15.0417 4.33174 14.9583 4.13038 14.8098 3.98191C14.6613 3.83345 14.46 3.75004 14.25 3.75004H4.75002C4.54006 3.75004 4.33869 3.83345 4.19023 3.98191C4.04176 4.13038 3.95835 4.33174 3.95835 4.54171V6.91671H2.37502V2.16671H16.625V6.91671ZM9.50002 10.875C9.96975 10.875 10.4289 10.7358 10.8195 10.4748C11.2101 10.2138 11.5145 9.84289 11.6942 9.40891C11.874 8.97494 11.921 8.49741 11.8294 8.0367C11.7377 7.576 11.5115 7.15281 11.1794 6.82066C10.8472 6.48851 10.4241 6.26232 9.96336 6.17068C9.50265 6.07904 9.02512 6.12607 8.59115 6.30583C8.15717 6.48559 7.78625 6.79 7.52528 7.18056C7.26431 7.57113 7.12502 8.03031 7.12502 8.50004C7.12502 9.12993 7.37524 9.73402 7.82064 10.1794C8.26604 10.6248 8.87013 10.875 9.50002 10.875ZM9.50002 7.70837C9.6566 7.70837 9.80966 7.75481 9.93985 7.84179C10.07 7.92878 10.1715 8.05243 10.2314 8.19708C10.2913 8.34174 10.307 8.50092 10.2765 8.65449C10.2459 8.80806 10.1705 8.94912 10.0598 9.05983C9.9491 9.17055 9.80803 9.24595 9.65447 9.2765C9.5009 9.30704 9.34172 9.29137 9.19706 9.23145C9.0524 9.17153 8.92876 9.07006 8.84177 8.93987C8.75478 8.80968 8.70835 8.65662 8.70835 8.50004C8.70835 8.29008 8.79176 8.08872 8.94023 7.94025C9.08869 7.79178 9.29006 7.70837 9.50002 7.70837Z" fill="#1293A9"/>
</svg>