<svg width="113" height="21" viewBox="0 0 113 21" fill="none" xmlns="http://www.w3.org/2000/svg">
<path d="M10.968 10.568C11.688 10.568 12.256 10.272 12.672 9.68C13.088 9.088 13.296 8.272 13.296 7.232C13.296 6.112 13.024 5.2 12.48 4.496C11.952 3.776 11.168 3.416 10.128 3.416C9.504 3.416 8.92 3.6 8.376 3.968V17.24L12.816 18.08L11.856 20H0.96V18.296L3.216 16.52V3.872L0.48 3.056L1.44 1.136H6.144C7.488 1.136 8.816 1.088 10.128 0.991999C11.088 0.927999 11.792 0.895998 12.24 0.895998C13.552 0.895998 14.712 1.144 15.72 1.64C16.744 2.136 17.536 2.816 18.096 3.68C18.656 4.544 18.936 5.504 18.936 6.56C18.936 7.712 18.472 8.808 17.544 9.848C16.632 10.872 15.472 11.68 14.064 12.272C12.672 12.848 11.328 13.104 10.032 13.04L9.024 12.464L9.984 10.544H10.968V10.568ZM27.8053 6.728C29.5813 6.728 30.9573 7.392 31.9333 8.72C32.9093 10.048 33.3733 11.936 33.3253 14.384H24.8533C25.0453 15.12 25.3653 15.704 25.8133 16.136C26.2613 16.552 26.8293 16.76 27.5173 16.76C28.6533 16.76 30.3493 16.344 32.6053 15.512L33.3253 17.144L30.0373 19.784C28.9493 20.088 27.6453 20.24 26.1253 20.24C24.8773 20.24 23.7573 19.968 22.7653 19.424C21.7893 18.864 21.0213 18.104 20.4613 17.144C19.9173 16.168 19.6453 15.088 19.6453 13.904C19.6453 12.624 20.0693 11.432 20.9173 10.328C21.7653 9.224 22.8293 8.352 24.1093 7.712C25.3893 7.056 26.6293 6.728 27.8293 6.728H27.8053ZM26.5333 9.944C25.9413 9.944 25.4933 10.152 25.1893 10.568C24.8853 10.968 24.7173 11.592 24.6853 12.44H28.6453C28.5653 11.592 28.3573 10.968 28.0213 10.568C27.6853 10.152 27.1813 9.944 26.5093 9.944H26.5333ZM43.9069 6.728C45.6829 6.728 47.0589 7.392 48.0349 8.72C49.0109 10.048 49.4749 11.936 49.4269 14.384H40.9549C41.1469 15.12 41.4669 15.704 41.9149 16.136C42.3629 16.552 42.9309 16.76 43.6189 16.76C44.7549 16.76 46.4509 16.344 48.7069 15.512L49.4269 17.144L46.1389 19.784C45.0509 20.088 43.7469 20.24 42.2269 20.24C40.9789 20.24 39.8589 19.968 38.8669 19.424C37.8909 18.864 37.1229 18.104 36.5629 17.144C36.0189 16.168 35.7469 15.088 35.7469 13.904C35.7469 12.624 36.1709 11.432 37.0189 10.328C37.8669 9.224 38.9309 8.352 40.2109 7.712C41.4909 7.056 42.7309 6.728 43.9309 6.728H43.9069ZM42.6349 9.944C42.0429 9.944 41.5949 10.152 41.2909 10.568C40.9869 10.968 40.8189 11.592 40.7869 12.44H44.7469C44.6669 11.592 44.4589 10.968 44.1229 10.568C43.7869 10.152 43.2829 9.944 42.6109 9.944H42.6349ZM59.7204 10.688C59.2724 10.688 58.8404 10.832 58.4244 11.12V17.144L62.2644 18.08L61.3044 20H51.4884V18.296L53.6244 16.424V11.744L51.4884 10.352V8.648L57.0324 6.512L57.9924 9.008L60.0324 6.92C60.3204 6.792 60.6804 6.728 61.1124 6.728C62.1524 6.728 63.0244 6.944 63.7284 7.376C64.4324 7.808 64.9124 8.408 65.1684 9.176L62.4564 12.584H60.5844C60.5844 11.896 60.5204 11.408 60.3924 11.12C60.2644 10.832 60.0404 10.688 59.7204 10.688Z" fill="white"/>
<path d="M80.3516 9.728C81.4716 10.192 82.3436 10.848 82.9676 11.696C83.6076 12.528 83.9276 13.456 83.9276 14.48C83.9276 15.488 83.4716 16.44 82.5596 17.336C81.6476 18.216 80.5116 18.92 79.1516 19.448C77.8076 19.976 76.5196 20.24 75.2876 20.24C74.4876 20.24 73.7036 20.2 72.9356 20.12C71.6556 20.04 70.6636 20 69.9596 20H65.9516V18.296L68.2076 16.52V3.704L65.4716 3.056L66.4316 1.136H69.9356C71.3916 1.136 72.8236 1.088 74.2316 0.991999C75.3196 0.927999 76.1196 0.895998 76.6316 0.895998C77.8956 0.895998 79.0076 1.104 79.9676 1.52C80.9276 1.936 81.6636 2.504 82.1756 3.224C82.7036 3.928 82.9676 4.72 82.9676 5.6C82.9676 6.368 82.7276 7.112 82.2476 7.832C81.7836 8.536 81.1516 9.176 80.3516 9.752V9.728ZM77.5916 6.944C77.5916 5.856 77.3516 4.992 76.8716 4.352C76.4076 3.696 75.7116 3.368 74.7836 3.368C74.2876 3.368 73.8236 3.44 73.3916 3.584V9.56H75.6236C76.9356 9.56 77.5916 8.688 77.5916 6.944ZM75.9596 17.504C76.7596 17.504 77.3836 17.296 77.8316 16.88C78.2956 16.464 78.5276 15.88 78.5276 15.128C78.5276 14.12 78.2636 13.296 77.7356 12.656C77.2076 12 76.4316 11.64 75.4076 11.576H74.9516H73.3916V17.072C74.1596 17.344 75.0236 17.48 75.9836 17.48L75.9596 17.504ZM93.5475 6.728C95.3235 6.728 96.6995 7.392 97.6755 8.72C98.6515 10.048 99.1155 11.936 99.0675 14.384H90.5955C90.7875 15.12 91.1075 15.704 91.5555 16.136C92.0035 16.552 92.5715 16.76 93.2595 16.76C94.3955 16.76 96.0915 16.344 98.3475 15.512L99.0675 17.144L95.7795 19.784C94.6915 20.088 93.3875 20.24 91.8675 20.24C90.6195 20.24 89.4995 19.968 88.5075 19.424C87.5315 18.864 86.7635 18.104 86.2035 17.144C85.6595 16.168 85.3875 15.088 85.3875 13.904C85.3875 12.624 85.8115 11.432 86.6595 10.328C87.5075 9.224 88.5715 8.352 89.8515 7.712C91.1315 7.056 92.3715 6.728 93.5715 6.728H93.5475ZM92.2755 9.944C91.6835 9.944 91.2355 10.152 90.9315 10.568C90.6275 10.968 90.4595 11.592 90.4275 12.44H94.3875C94.3075 11.592 94.0995 10.968 93.7635 10.568C93.4275 10.152 92.9235 9.944 92.2515 9.944H92.2755ZM109.985 20.048C109.329 20.176 108.561 20.24 107.681 20.24C106.017 20.24 104.801 19.896 104.033 19.208C103.265 18.504 102.881 17.424 102.881 15.968V9.632H100.289V8.168L105.809 2.384H107.681V7.688H112.001V9.632H107.681V15.536C107.681 16.512 108.305 17 109.553 17C109.873 17 110.185 16.968 110.489 16.904C110.809 16.824 111.209 16.688 111.689 16.496L112.409 18.128L109.985 20.048Z" fill="#2A52BE"/>
</svg>
