<svg width="113" height="62" viewBox="0 0 113 62" fill="none" xmlns="http://www.w3.org/2000/svg">
<path d="M10.968 31.568C11.688 31.568 12.256 31.272 12.672 30.68C13.088 30.088 13.296 29.272 13.296 28.232C13.296 27.112 13.024 26.2 12.48 25.496C11.952 24.776 11.168 24.416 10.128 24.416C9.504 24.416 8.92 24.6 8.376 24.968V38.24L12.816 39.08L11.856 41H0.96V39.296L3.216 37.52V24.872L0.48 24.056L1.44 22.136H6.144C7.488 22.136 8.816 22.088 10.128 21.992C11.088 21.928 11.792 21.896 12.24 21.896C13.552 21.896 14.712 22.144 15.72 22.64C16.744 23.136 17.536 23.816 18.096 24.68C18.656 25.544 18.936 26.504 18.936 27.56C18.936 28.712 18.472 29.808 17.544 30.848C16.632 31.872 15.472 32.68 14.064 33.272C12.672 33.848 11.328 34.104 10.032 34.04L9.024 33.464L9.984 31.544H10.968V31.568ZM27.8053 27.728C29.5813 27.728 30.9573 28.392 31.9333 29.72C32.9093 31.048 33.3733 32.936 33.3253 35.384H24.8533C25.0453 36.12 25.3653 36.704 25.8133 37.136C26.2613 37.552 26.8293 37.76 27.5173 37.76C28.6533 37.76 30.3493 37.344 32.6053 36.512L33.3253 38.144L30.0373 40.784C28.9493 41.088 27.6453 41.24 26.1253 41.24C24.8773 41.24 23.7573 40.968 22.7653 40.424C21.7893 39.864 21.0213 39.104 20.4613 38.144C19.9173 37.168 19.6453 36.088 19.6453 34.904C19.6453 33.624 20.0693 32.432 20.9173 31.328C21.7653 30.224 22.8293 29.352 24.1093 28.712C25.3893 28.056 26.6293 27.728 27.8293 27.728H27.8053ZM26.5333 30.944C25.9413 30.944 25.4933 31.152 25.1893 31.568C24.8853 31.968 24.7173 32.592 24.6853 33.44H28.6453C28.5653 32.592 28.3573 31.968 28.0213 31.568C27.6853 31.152 27.1813 30.944 26.5093 30.944H26.5333ZM43.9069 27.728C45.6829 27.728 47.0589 28.392 48.0349 29.72C49.0109 31.048 49.4749 32.936 49.4269 35.384H40.9549C41.1469 36.12 41.4669 36.704 41.9149 37.136C42.3629 37.552 42.9309 37.76 43.6189 37.76C44.7549 37.76 46.4509 37.344 48.7069 36.512L49.4269 38.144L46.1389 40.784C45.0509 41.088 43.7469 41.24 42.2269 41.24C40.9789 41.24 39.8589 40.968 38.8669 40.424C37.8909 39.864 37.1229 39.104 36.5629 38.144C36.0189 37.168 35.7469 36.088 35.7469 34.904C35.7469 33.624 36.1709 32.432 37.0189 31.328C37.8669 30.224 38.9309 29.352 40.2109 28.712C41.4909 28.056 42.7309 27.728 43.9309 27.728H43.9069ZM42.6349 30.944C42.0429 30.944 41.5949 31.152 41.2909 31.568C40.9869 31.968 40.8189 32.592 40.7869 33.44H44.7469C44.6669 32.592 44.4589 31.968 44.1229 31.568C43.7869 31.152 43.2829 30.944 42.6109 30.944H42.6349ZM59.7204 31.688C59.2724 31.688 58.8404 31.832 58.4244 32.12V38.144L62.2644 39.08L61.3044 41H51.4884V39.296L53.6244 37.424V32.744L51.4884 31.352V29.648L57.0324 27.512L57.9924 30.008L60.0324 27.92C60.3204 27.792 60.6804 27.728 61.1124 27.728C62.1524 27.728 63.0244 27.944 63.7284 28.376C64.4324 28.808 64.9124 29.408 65.1684 30.176L62.4564 33.584H60.5844C60.5844 32.896 60.5204 32.408 60.3924 32.12C60.2644 31.832 60.0404 31.688 59.7204 31.688Z" fill="#2A2D37"/>
<path d="M80.3516 30.728C81.4716 31.192 82.3436 31.848 82.9676 32.696C83.6076 33.528 83.9276 34.456 83.9276 35.48C83.9276 36.488 83.4716 37.44 82.5596 38.336C81.6476 39.216 80.5116 39.92 79.1516 40.448C77.8076 40.976 76.5196 41.24 75.2876 41.24C74.4876 41.24 73.7036 41.2 72.9356 41.12C71.6556 41.04 70.6636 41 69.9596 41H65.9516V39.296L68.2076 37.52V24.704L65.4716 24.056L66.4316 22.136H69.9356C71.3916 22.136 72.8236 22.088 74.2316 21.992C75.3196 21.928 76.1196 21.896 76.6316 21.896C77.8956 21.896 79.0076 22.104 79.9676 22.52C80.9276 22.936 81.6636 23.504 82.1756 24.224C82.7036 24.928 82.9676 25.72 82.9676 26.6C82.9676 27.368 82.7276 28.112 82.2476 28.832C81.7836 29.536 81.1516 30.176 80.3516 30.752V30.728ZM77.5916 27.944C77.5916 26.856 77.3516 25.992 76.8716 25.352C76.4076 24.696 75.7116 24.368 74.7836 24.368C74.2876 24.368 73.8236 24.44 73.3916 24.584V30.56H75.6236C76.9356 30.56 77.5916 29.688 77.5916 27.944ZM75.9596 38.504C76.7596 38.504 77.3836 38.296 77.8316 37.88C78.2956 37.464 78.5276 36.88 78.5276 36.128C78.5276 35.12 78.2636 34.296 77.7356 33.656C77.2076 33 76.4316 32.64 75.4076 32.576H74.9516H73.3916V38.072C74.1596 38.344 75.0236 38.48 75.9836 38.48L75.9596 38.504ZM93.5475 27.728C95.3235 27.728 96.6995 28.392 97.6755 29.72C98.6515 31.048 99.1155 32.936 99.0675 35.384H90.5955C90.7875 36.12 91.1075 36.704 91.5555 37.136C92.0035 37.552 92.5715 37.76 93.2595 37.76C94.3955 37.76 96.0915 37.344 98.3475 36.512L99.0675 38.144L95.7795 40.784C94.6915 41.088 93.3875 41.24 91.8675 41.24C90.6195 41.24 89.4995 40.968 88.5075 40.424C87.5315 39.864 86.7635 39.104 86.2035 38.144C85.6595 37.168 85.3875 36.088 85.3875 34.904C85.3875 33.624 85.8115 32.432 86.6595 31.328C87.5075 30.224 88.5715 29.352 89.8515 28.712C91.1315 28.056 92.3715 27.728 93.5715 27.728H93.5475ZM92.2755 30.944C91.6835 30.944 91.2355 31.152 90.9315 31.568C90.6275 31.968 90.4595 32.592 90.4275 33.44H94.3875C94.3075 32.592 94.0995 31.968 93.7635 31.568C93.4275 31.152 92.9235 30.944 92.2515 30.944H92.2755ZM109.985 41.048C109.329 41.176 108.561 41.24 107.681 41.24C106.017 41.24 104.801 40.896 104.033 40.208C103.265 39.504 102.881 38.424 102.881 36.968V30.632H100.289V29.168L105.809 23.384H107.681V28.688H112.001V30.632H107.681V36.536C107.681 37.512 108.305 38 109.553 38C109.873 38 110.185 37.968 110.489 37.904C110.809 37.824 111.209 37.688 111.689 37.496L112.409 39.128L109.985 41.048Z" fill="#2A52BE"/>
</svg>
