<svg xmlns="http://www.w3.org/2000/svg" width="18" height="10" viewBox="0 0 18 10" fill="none">
  <path d="M9.59386 7.795C9.96304 7.6612 10.2656 7.53747 10.5016 7.42383C10.9146 7.22491 11.313 6.99946 11.625 6.6875C12.1875 6.125 10.5 6.125 10.5 3.3125C10.5 1.43769 11.2498 0.5 12.75 0.5C14.2502 0.5 15 1.43769 15 3.3125C15 6.125 13.3125 6.125 13.875 6.6875C15 7.8125 17.25 7.8125 17.25 9.5M0.75 9.5C0.75 7.8125 3 7.8125 4.125 6.6875C4.6875 6.125 3 6.125 3 3.3125C3 1.43769 3.74981 0.5 5.25 0.5C6.75019 0.5 7.5 1.43769 7.5 3.3125C7.5 6.125 5.8125 6.125 6.375 6.6875C7.5 7.8125 9.75 7.8125 9.75 9.5H0.75Z" stroke="#1293A9" stroke-linecap="square"/>
</svg>